<svg width="500" height="200" viewBox="0 0 500 200" xmlns="http://www.w3.org/2000/svg">
  <defs>
    <linearGradient id="grad6" x1="0%" y1="0%" x2="100%" y2="0%">
      <stop offset="0%" style="stop-color:#1A237E;stop-opacity:1" />
      <stop offset="100%" style="stop-color:#3949AB;stop-opacity:1" />
    </linearGradient>
  </defs>

  <!-- Dark background strip -->
  <rect x="0" y="35" width="500" height="90" rx="10" fill="url(#grad6)" />

  <!-- Lightning bolts decorative -->
  <path d="M30 45 L25 70 L33 70 L28 95 L45 62 L36 62 L42 45 Z" fill="#FFD600" opacity="0.3" />
  <path d="M450 50 L445 72 L452 72 L448 92 L462 66 L454 66 L460 50 Z" fill="#FFD600" opacity="0.3" />

  <!-- Text on dark background -->
  <text x="250" y="90" font-family="'Segoe UI', Arial, sans-serif" font-size="48" font-weight="900" fill="white" text-anchor="middle" letter-spacing="2">AlexaVolt</text>

  <!-- Yellow accent bar -->
  <rect x="100" y="125" width="300" height="4" rx="2" fill="#FFD600" />

  <!-- Subtitle -->
  <text x="250" y="155" font-family="Arial, sans-serif" font-size="14" fill="#555" text-anchor="middle" letter-spacing="5" font-weight="700">AUTORIZAT ANRE</text>

  <!-- Outlet icon left -->
  <circle cx="60" cy="160" r="14" fill="none" stroke="#3949AB" stroke-width="2" />
  <circle cx="55" cy="156" r="2" fill="#3949AB" />
  <circle cx="65" cy="156" r="2" fill="#3949AB" />
  <rect x="57" y="163" width="6" height="3" rx="1" fill="#3949AB" />

  <!-- Plug icon right -->
  <rect x="420" y="148" width="20" height="12" rx="3" fill="#3949AB" />
  <rect x="440" y="151" width="8" height="2" rx="1" fill="#3949AB" />
  <rect x="440" y="155" width="8" height="2" rx="1" fill="#3949AB" />
</svg>
